# xmcd
#
# Track frame offsets: 
#        183
#        16905
#        34650
#        49285
#        67900
#        84900
#        95995
#        111610
#        129960
#        150860
#        170438
#        189898
#        207378
#
# Disc length: 2998 seconds
#
# Revision: 0
# Processed by: cddbd v1.5.2PL0 Copyright (c) Steve Scherf et al.
# Submitted via: ExactAudioCopyFreeDBPlugin 1.0
#
DISCID=a30bb40d
DTITLE=The Slamhound Hunters - Private Jungle
DYEAR=1999
DGENRE=Countryrock
TTITLE0=The Fugitive
TTITLE1=Test Of Time
TTITLE2=Cadillac Walk
TTITLE3=Good MAn
TTITLE4=Hard Work
TTITLE5=By Night I Dream
TTITLE6=Lonely Woman
TTITLE7=Ain't That Crazy
TTITLE8=Love The Pity
TTITLE9=Swamp Crab
TTITLE10=Rockin' My Boat
TTITLE11=The Snake Sheds Its Skin
TTITLE12=Joe The Ripper
EXTD=
EXTT0=
EXTT1=
EXTT2=
EXTT3=
EXTT4=
EXTT5=
EXTT6=
EXTT7=
EXTT8=
EXTT9=
EXTT10=
EXTT11=
EXTT12=
PLAYORDER=
